<?xml version="1.0" standalone="no"?>
<!DOCTYPE svg PUBLIC "-//W3C//DTD SVG 20010904//EN"
 "http://www.w3.org/TR/2001/REC-SVG-20010904/DTD/svg10.dtd">
<svg version="1.0" xmlns="http://www.w3.org/2000/svg"
 width="2000.000000pt" height="1900.000000pt" viewBox="0 0 2000.000000 1900.000000"
 preserveAspectRatio="xMidYMid meet">

<g transform="translate(0.000000,1900.000000) scale(0.100000,-0.100000)"
fill="#000000" stroke="none">
<path d="M17660 18984 c-136 -19 -382 -83 -638 -164 -217 -69 -223 -70 -329
-70 -339 0 -978 -55 -1518 -130 -450 -63 -716 -107 -1640 -276 -668 -122
-1080 -193 -1415 -245 l-205 -32 -585 7 c-551 6 -964 16 -2075 51 -1494 47
-2408 45 -3250 -5 -1290 -78 -2393 -277 -3436 -619 -361 -119 -856 -312 -866
-338 -9 -22 -124 -100 -198 -133 -38 -17 -168 -65 -289 -106 -355 -121 -513
-196 -681 -324 -267 -202 -427 -502 -492 -920 -24 -153 -24 -567 0 -750 9 -69
30 -233 47 -365 40 -320 80 -545 210 -1200 168 -848 211 -1127 230 -1515 6
-118 13 -225 16 -237 6 -33 29 -28 53 10 31 50 56 70 68 55 5 -7 22 -73 37
-146 46 -230 89 -310 209 -391 86 -58 129 -103 165 -177 l26 -53 -27 -173
c-44 -274 -58 -434 -64 -723 -10 -447 25 -847 133 -1542 19 -122 34 -230 34
-240 0 -26 -73 -78 -214 -155 -152 -81 -218 -135 -282 -229 -100 -147 -158
-343 -179 -599 -17 -209 -29 -272 -60 -308 -22 -26 -25 -26 -69 -14 -64 17
-96 15 -133 -8 -63 -38 -67 -57 -68 -335 -2 -266 1 -246 -71 -610 -25 -124
-28 -163 -28 -340 0 -185 2 -207 26 -297 26 -97 27 -97 10 -180 -26 -133 -22
-552 6 -778 57 -443 64 -521 72 -825 4 -170 11 -321 15 -335 5 -14 24 -51 43
-83 51 -84 54 -156 13 -352 -47 -223 -58 -290 -66 -395 l-7 -95 120 -180 c153
-229 262 -364 432 -539 155 -159 246 -235 414 -347 290 -193 607 -305 1006
-355 106 -13 273 -18 780 -24 355 -5 690 -13 745 -19 425 -48 766 -166 1073
-373 41 -27 75 -48 76 -46 1 1 24 44 51 93 84 158 134 217 157 184 6 -9 7 -89
4 -199 -5 -144 -3 -190 7 -203 12 -17 14 -16 36 7 49 52 80 25 155 -137 25
-54 55 -111 66 -127 27 -38 62 -39 85 -4 37 57 47 109 55 280 9 185 17 220 53
209 68 -20 81 8 81 173 l1 123 -39 33 c-47 39 -49 63 -17 148 59 152 102 124
136 -87 8 -49 26 -187 40 -305 51 -432 91 -600 142 -600 13 0 14 16 7 112 -5
62 -9 159 -9 214 0 86 3 105 19 123 11 12 27 21 37 21 13 0 25 23 50 98 40
120 75 202 87 202 20 0 33 -31 56 -131 24 -106 47 -260 65 -429 6 -52 17 -115
24 -140 l13 -45 31 60 c48 92 106 160 165 189 98 49 166 28 365 -112 155 -109
208 -135 283 -136 70 -1 126 30 178 98 54 72 85 91 141 90 54 0 80 -14 211
-111 147 -109 215 -119 270 -40 79 115 91 127 115 127 31 0 51 -29 76 -111
l20 -66 61 -7 c171 -18 503 -5 1028 39 801 67 1147 61 1493 -26 l79 -20 176
30 c340 58 696 97 1132 123 288 17 1374 16 2005 -1 599 -17 1509 -18 1820 -2
588 30 1069 85 1510 172 293 58 362 78 565 166 216 94 1471 709 1482 727 19
29 70 162 101 266 153 505 258 1304 307 2330 18 367 30 1095 30 1815 0 980 12
1487 65 2810 20 499 34 1212 45 2350 5 534 15 1311 22 1727 12 757 5 1363 -22
1973 -5 116 -14 320 -20 455 -32 762 -112 1503 -217 2005 -62 301 -121 478
-256 770 -306 664 -681 1079 -1104 1221 -188 63 -458 82 -693 48z m-7575
-7249 c2872 -4729 3190 -5250 3192 -5217 1 20 -46 2305 -106 5077 -59 2772
-105 5043 -102 5047 3 4 578 77 1276 163 699 86 1287 159 1308 162 l37 6 1
-54 c0 -30 -62 -2123 -138 -4651 l-137 -4597 118 -2561 c65 -1409 117 -2562
115 -2564 -2 -1 -575 -123 -1272 -271 -1047 -221 -1270 -266 -1277 -254 -5 8
-1445 2339 -3202 5180 l-3193 5165 -3 -2360 -2 -2360 145 -2695 c79 -1483 147
-2738 151 -2788 l6 -93 -1346 0 -1346 0 0 38 c-1 20 56 1205 126 2632 l127
2595 -129 4763 c-71 2619 -129 4762 -129 4763 0 2 2462 127 2520 127 l70 1
3190 -5254z"/>
</g>
</svg>
